<?xml version="1.0" encoding="UTF-8" standalone="no"?>
<svg
   xmlns:osb="http://www.openswatchbook.org/uri/2009/osb"
   xmlns:dc="http://purl.org/dc/elements/1.1/"
   xmlns:cc="http://creativecommons.org/ns#"
   xmlns:rdf="http://www.w3.org/1999/02/22-rdf-syntax-ns#"
   xmlns:svg="http://www.w3.org/2000/svg"
   xmlns="http://www.w3.org/2000/svg"
   xmlns:sodipodi="http://sodipodi.sourceforge.net/DTD/sodipodi-0.dtd"
   xmlns:inkscape="http://www.inkscape.org/namespaces/inkscape"
   width="63.236763mm"
   height="14.464785mm"
   viewBox="0 0 63.236763 14.464785"
   version="1.1"
   id="svg8"
   sodipodi:docname="patreon-icon.svg"
   inkscape:version="1.0.2-2 (e86c870879, 2021-01-15)"
   inkscape:export-xdpi="70.239555"
   inkscape:export-ydpi="70.239555">
  <defs
     id="defs2">
    <linearGradient
       id="linearGradient1044"
       osb:paint="solid">
      <stop
         style="stop-color:#ff0000;stop-opacity:1;"
         offset="0"
         id="stop1042" />
    </linearGradient>
    <filter
       inkscape:collect="always"
       style="color-interpolation-filters:sRGB"
       id="filter1311-2"
       x="-0.022346305"
       width="1.0446926"
       y="-0.11502675"
       height="1.2300535">
      <feGaussianBlur
         inkscape:collect="always"
         stdDeviation="0.56360593"
         id="feGaussianBlur1313-4" />
    </filter>
  </defs>
  <sodipodi:namedview
     id="base"
     pagecolor="#ffffff"
     bordercolor="#666666"
     borderopacity="1.0"
     inkscape:pageopacity="0.0"
     inkscape:pageshadow="2"
     inkscape:zoom="2.8284271"
     inkscape:cx="6.7705087"
     inkscape:cy="-21.889073"
     inkscape:document-units="mm"
     inkscape:current-layer="layer1"
     inkscape:document-rotation="0"
     showgrid="false"
     inkscape:window-width="2560"
     inkscape:window-height="1377"
     inkscape:window-x="-8"
     inkscape:window-y="32"
     inkscape:window-maximized="1"
     fit-margin-top="0"
     fit-margin-left="0"
     fit-margin-right="0"
     fit-margin-bottom="0"
     showguides="true"
     inkscape:guide-bbox="true" />
  <metadata
     id="metadata5">
    <rdf:RDF>
      <cc:Work
         rdf:about="">
        <dc:format>image/svg+xml</dc:format>
        <dc:type
           rdf:resource="http://purl.org/dc/dcmitype/StillImage" />
        <dc:title />
      </cc:Work>
    </rdf:RDF>
  </metadata>
  <g
     inkscape:label="Layer 1"
     inkscape:groupmode="layer"
     id="layer1"
     transform="translate(-63.120376,-66.462379)">
    <g
       id="g922"
       transform="translate(49.005287,26.887154)">
      <path
         id="rect853-5-5"
         style="fill:#000000;fill-opacity:1;stroke:#f96854;stroke-width:0.265;stroke-miterlimit:4;stroke-dasharray:none;stroke-opacity:1;filter:url(#filter1311-2)"
         d="m 16.938713,40.927879 h 57.589514 c 0.814917,0 1.470969,0.656053 1.470969,1.47097 v 8.817537 c 0,0.814917 -0.656052,1.470969 -1.470969,1.470969 H 16.938713 c -0.814917,0 -1.470969,-0.656052 -1.470969,-1.470969 v -8.817537 c 0,-0.814917 0.656052,-1.47097 1.470969,-1.47097 z" />
      <path
         id="rect853-2"
         style="fill:#f96854;fill-opacity:1;stroke:#f96854;stroke-width:0.264583;stroke-opacity:1"
         d="M 16.802986,40.795158 H 74.3925 c 0.814917,0 1.470969,0.656053 1.470969,1.47097 v 8.817537 c 0,0.814917 -0.656052,1.470969 -1.470969,1.470969 H 16.802986 c -0.814917,0 -1.470969,-0.656052 -1.470969,-1.470969 v -8.817537 c 0,-0.814917 0.656052,-1.47097 1.470969,-1.47097 z" />
      <g
         id="g1054"
         transform="matrix(0.57723581,0,0,0.57723581,41.11369,42.63947)">
        <path
           id="rect1040"
           style="opacity:1;fill:#052d49;fill-opacity:1;stroke:none;stroke-width:0.0220599;stroke-linejoin:round;stroke-miterlimit:4;stroke-dasharray:none;stroke-opacity:1"
           d="m -39.243107,1.5910956 h 2.404756 V 12.437577 h -2.404756 z" />
        <path
           id="path1050"
           style="opacity:1;fill:#ffffff;fill-opacity:1;stroke:none;stroke-width:0.12218;stroke-linejoin:round;stroke-miterlimit:4;stroke-dasharray:none;stroke-opacity:1"
           d="m -27.737153,5.7070446 a 4.1627231,4.1627226 0 0 1 -4.162723,4.1627226 4.1627231,4.1627226 0 0 1 -4.162723,-4.1627226 4.1627231,4.1627226 0 0 1 4.162723,-4.1627226 4.1627231,4.1627226 0 0 1 4.162723,4.1627226 z" />
      </g>
      <path
         d="m 29.289954,45.84669 q 0,0.230205 -0.103195,0.423364 -0.103195,0.190514 -0.341337,0.317524 v 0.01058 q 0.132301,0.04498 0.240788,0.116425 0.111133,0.0688 0.187868,0.166699 0.07938,0.09526 0.121717,0.216974 0.04498,0.121718 0.04498,0.272541 0,0.129655 -0.04234,0.277833 -0.03969,0.148177 -0.142885,0.288417 -0.103195,0.137593 -0.275187,0.254018 -0.171992,0.116425 -0.433948,0.185222 -0.06615,0.01588 -0.145531,0.02911 -0.07673,0.01323 -0.171992,0.02381 -0.09526,0.0079 -0.211682,0.01323 -0.116425,0.0026 -0.261957,0.0026 h -1.029304 v -3.540382 h 1.230402 q 0.394258,0 0.635046,0.07938 0.17993,0.05821 0.312231,0.15347 0.132302,0.09261 0.216974,0.209036 0.08732,0.113779 0.12701,0.243434 0.04234,0.127009 0.04234,0.256664 z m -1.915722,1.058411 v 0.997551 h 0.423364 q 0.169345,0 0.291063,-0.0079 0.121717,-0.01058 0.209036,-0.03175 0.134947,-0.02911 0.224912,-0.07674 0.08996,-0.05027 0.145531,-0.111133 0.05557,-0.0635 0.07938,-0.137593 0.02381,-0.07673 0.02381,-0.161408 0,-0.148177 -0.08203,-0.25931 -0.08203,-0.111133 -0.256664,-0.1667 -0.07674,-0.02381 -0.17993,-0.0344 -0.103195,-0.01058 -0.264602,-0.01058 z m 0.584771,-0.542436 q 0.264603,0 0.394258,-0.05292 0.145531,-0.06086 0.20639,-0.1667 0.06351,-0.108487 0.06351,-0.243434 0,-0.140239 -0.07144,-0.248726 -0.07144,-0.111134 -0.243434,-0.164054 -0.07144,-0.02117 -0.1667,-0.02911 -0.09526,-0.01058 -0.235496,-0.01058 H 27.37424 v 0.915524 z"
         style="font-style:normal;font-variant:normal;font-weight:bold;font-stretch:normal;font-size:5.41906px;line-height:1.25;font-family:Corbel;-inkscape-font-specification:'Corbel Bold';fill:#ffffff;fill-opacity:1;stroke:none;stroke-width:0.135476"
         id="path864" />
      <path
         d="m 30.75056,47.902652 h 1.741085 v 0.542435 h -2.389361 v -3.540382 h 2.294104 v 0.542436 H 30.75056 v 0.915524 h 1.412978 v 0.542436 H 30.75056 Z"
         style="font-style:normal;font-variant:normal;font-weight:bold;font-stretch:normal;font-size:5.41906px;line-height:1.25;font-family:Corbel;-inkscape-font-specification:'Corbel Bold';fill:#ffffff;fill-opacity:1;stroke:none;stroke-width:0.135476"
         id="path866" />
      <path
         d="m 34.902174,45.386282 q -0.264602,0 -0.489515,0.08732 -0.222266,0.08732 -0.383673,0.254018 -0.158762,0.1667 -0.248727,0.41278 -0.08996,0.243435 -0.08996,0.558312 0,0.312231 0.08203,0.550373 0.08203,0.235496 0.235497,0.394258 0.153469,0.158761 0.373089,0.240788 0.222266,0.07938 0.502745,0.07938 0.201098,0 0.410134,-0.03175 0.209036,-0.03175 0.391612,-0.09261 v 0.558311 q -0.185222,0.05292 -0.39955,0.08203 -0.214328,0.03175 -0.444532,0.03175 -0.449825,0 -0.791162,-0.127009 -0.341337,-0.129655 -0.571542,-0.362506 -0.227558,-0.235496 -0.343983,-0.560957 -0.113779,-0.328107 -0.113779,-0.722365 0,-0.404842 0.121717,-0.751471 0.124363,-0.34663 0.354568,-0.600648 0.23285,-0.254018 0.579479,-0.39955 0.349276,-0.145531 0.788516,-0.148177 0.224912,0 0.42601,0.03175 0.201098,0.02911 0.362505,0.08467 v 0.550373 q -0.211682,-0.06615 -0.394257,-0.09261 -0.182576,-0.02646 -0.357214,-0.02646 z"
         style="font-style:normal;font-variant:normal;font-weight:bold;font-stretch:normal;font-size:5.41906px;line-height:1.25;font-family:Corbel;-inkscape-font-specification:'Corbel Bold';fill:#ffffff;fill-opacity:1;stroke:none;stroke-width:0.135476"
         id="path868" />
      <path
         d="m 38.969115,46.674896 q 0,-0.322815 -0.07938,-0.563603 -0.07938,-0.243434 -0.21962,-0.404842 -0.14024,-0.161408 -0.3334,-0.240788 -0.193159,-0.07938 -0.423364,-0.07938 -0.230204,0 -0.423364,0.07938 -0.19316,0.07938 -0.333399,0.240788 -0.140239,0.161408 -0.21962,0.404842 -0.07938,0.240788 -0.07938,0.563603 0,0.322815 0.07938,0.56625 0.07938,0.240788 0.21962,0.402196 0.140239,0.158761 0.333399,0.240788 0.19316,0.07938 0.423364,0.07938 0.230205,0 0.423364,-0.07938 0.19316,-0.08203 0.3334,-0.240788 0.140239,-0.161408 0.21962,-0.402196 0.07938,-0.243435 0.07938,-0.56625 z m 0.669445,0 q 0,0.404842 -0.116425,0.743534 -0.113779,0.336045 -0.336045,0.579479 -0.219621,0.243434 -0.542436,0.378382 -0.320169,0.134947 -0.730303,0.134947 -0.410134,0 -0.732949,-0.134947 -0.320169,-0.134948 -0.542435,-0.378382 -0.21962,-0.243434 -0.336045,-0.579479 -0.113779,-0.338692 -0.113779,-0.743534 0,-0.404842 0.113779,-0.740887 0.116425,-0.338691 0.336045,-0.582125 0.222266,-0.243435 0.542435,-0.378382 0.322815,-0.134947 0.732949,-0.134947 0.410134,0 0.730303,0.134947 0.322815,0.134947 0.542436,0.378382 0.222266,0.243434 0.336045,0.582125 0.116425,0.336045 0.116425,0.740887 z"
         style="font-style:normal;font-variant:normal;font-weight:bold;font-stretch:normal;font-size:5.41906px;line-height:1.25;font-family:Corbel;-inkscape-font-specification:'Corbel Bold';fill:#ffffff;fill-opacity:1;stroke:none;stroke-width:0.135476"
         id="path870" />
      <path
         d="m 42.146992,47.495164 q 0.116425,-0.418072 0.288416,-0.897002 l 0.611232,-1.693457 h 0.910233 v 3.540382 h -0.648276 v -1.794005 q 0,-0.394258 0.03175,-0.915525 h -0.02381 q -0.04498,0.150824 -0.105841,0.338692 -0.06086,0.187867 -0.127009,0.370443 l -0.732949,2.000395 h -0.418072 l -0.73295,-2.000395 q -0.06615,-0.182576 -0.127009,-0.370443 -0.06086,-0.187868 -0.105841,-0.338692 h -0.02381 q 0.03175,0.489515 0.03175,0.912879 v 1.796651 H 40.32653 v -3.540382 h 0.904941 l 0.611232,1.685519 q 0.153469,0.420718 0.288416,0.90494 z"
         style="font-style:normal;font-variant:normal;font-weight:bold;font-stretch:normal;font-size:5.41906px;line-height:1.25;font-family:Corbel;-inkscape-font-specification:'Corbel Bold';fill:#ffffff;fill-opacity:1;stroke:none;stroke-width:0.135476"
         id="path872" />
      <path
         d="m 45.451878,47.902652 h 1.741085 v 0.542435 h -2.389361 v -3.540382 h 2.294104 v 0.542436 h -1.645828 v 0.915524 h 1.412978 v 0.542436 h -1.412978 z"
         style="font-style:normal;font-variant:normal;font-weight:bold;font-stretch:normal;font-size:5.41906px;line-height:1.25;font-family:Corbel;-inkscape-font-specification:'Corbel Bold';fill:#ffffff;fill-opacity:1;stroke:none;stroke-width:0.135476"
         id="path874" />
      <path
         d="m 50.786266,47.542793 h -1.333597 l -0.346629,0.902294 h -0.690613 l 1.40504,-3.540382 h 0.592709 l 1.40504,3.540382 h -0.685321 z m -0.672091,-1.786067 q -0.185221,0.555665 -0.330753,0.928754 l -0.121717,0.314878 H 50.57723 L 50.455513,46.68548 q -0.145532,-0.375735 -0.330754,-0.928754 z"
         style="font-style:normal;font-variant:normal;font-weight:bold;font-stretch:normal;font-size:5.41906px;line-height:1.25;font-family:Corbel;-inkscape-font-specification:'Corbel Bold';fill:#ffffff;fill-opacity:1;stroke:none;stroke-width:0.135476"
         id="path876" />
      <path
         d="m 54.416613,47.074446 q -0.08732,0 -0.171992,-0.0026 -0.08467,-0.0026 -0.158761,-0.01058 v 1.383871 h -0.648277 v -3.540382 h 1.021366 q 0.256665,0 0.447179,0.02381 0.193159,0.02117 0.343983,0.06615 0.362505,0.111133 0.558311,0.354568 0.195806,0.243434 0.195806,0.61917 0,0.256664 -0.105841,0.463054 -0.105841,0.203744 -0.309585,0.346629 -0.203744,0.142886 -0.497453,0.21962 -0.293709,0.07673 -0.674736,0.07673 z M 54.08586,46.516135 q 0.05557,0.0079 0.140239,0.01323 0.08732,0.0026 0.17993,0.0026 0.261956,0 0.43924,-0.04234 0.177284,-0.04234 0.285771,-0.116426 0.108487,-0.07673 0.156115,-0.182575 0.04763,-0.108487 0.04763,-0.235497 0,-0.156115 -0.07144,-0.269894 -0.07144,-0.113779 -0.248726,-0.177284 -0.09261,-0.03175 -0.230205,-0.04498 -0.134947,-0.01588 -0.333399,-0.01588 H 54.08586 Z"
         style="font-style:normal;font-variant:normal;font-weight:bold;font-stretch:normal;font-size:5.41906px;line-height:1.25;font-family:Corbel;-inkscape-font-specification:'Corbel Bold';fill:#ffffff;fill-opacity:1;stroke:none;stroke-width:0.135476"
         id="path878" />
      <path
         d="m 58.295686,47.542793 h -1.333597 l -0.346629,0.902294 h -0.690613 l 1.40504,-3.540382 h 0.59271 l 1.405039,3.540382 h -0.68532 z m -0.67209,-1.786067 q -0.185222,0.555665 -0.330753,0.928754 l -0.121718,0.314878 H 58.08665 L 57.964933,46.68548 Q 57.819402,46.309745 57.63418,45.756726 Z"
         style="font-style:normal;font-variant:normal;font-weight:bold;font-stretch:normal;font-size:5.41906px;line-height:1.25;font-family:Corbel;-inkscape-font-specification:'Corbel Bold';fill:#ffffff;fill-opacity:1;stroke:none;stroke-width:0.135476"
         id="path880" />
      <path
         d="m 60.986693,48.445087 h -0.648276 v -2.997946 h -1.143083 v -0.542436 h 2.931796 v 0.542436 h -1.140437 z"
         style="font-style:normal;font-variant:normal;font-weight:bold;font-stretch:normal;font-size:5.41906px;line-height:1.25;font-family:Corbel;-inkscape-font-specification:'Corbel Bold';fill:#ffffff;fill-opacity:1;stroke:none;stroke-width:0.135476"
         id="path882" />
      <path
         d="m 65.24944,45.968408 q 0,0.370443 -0.20639,0.629754 -0.203744,0.256664 -0.6324,0.381027 v 0.01058 l 1.053118,1.455314 h -0.777932 l -0.963153,-1.370641 h -0.444532 v 1.370641 h -0.648276 v -3.540382 h 1.076932 q 0.267249,0 0.497453,0.03175 0.230204,0.02911 0.394258,0.08996 0.312231,0.119072 0.481576,0.354568 0.169346,0.23285 0.169346,0.587418 z m -1.65112,0.563603 q 0.222266,0 0.375736,-0.01852 0.156115,-0.02117 0.261956,-0.06086 0.195806,-0.07409 0.269895,-0.201098 0.07673,-0.129655 0.07673,-0.296355 0,-0.142885 -0.06086,-0.251372 -0.05821,-0.111133 -0.201098,-0.174638 -0.09261,-0.04234 -0.23285,-0.06086 -0.14024,-0.02117 -0.34663,-0.02117 h -0.463054 v 1.08487 z"
         style="font-style:normal;font-variant:normal;font-weight:bold;font-stretch:normal;font-size:5.41906px;line-height:1.25;font-family:Corbel;-inkscape-font-specification:'Corbel Bold';fill:#ffffff;fill-opacity:1;stroke:none;stroke-width:0.135476"
         id="path884" />
      <path
         d="m 68.654876,46.674896 q 0,-0.322815 -0.07938,-0.563603 -0.07938,-0.243434 -0.21962,-0.404842 -0.140239,-0.161408 -0.333399,-0.240788 -0.19316,-0.07938 -0.423364,-0.07938 -0.230204,0 -0.423364,0.07938 -0.19316,0.07938 -0.3334,0.240788 -0.140239,0.161408 -0.21962,0.404842 -0.07938,0.240788 -0.07938,0.563603 0,0.322815 0.07938,0.56625 0.07938,0.240788 0.21962,0.402196 0.14024,0.158761 0.3334,0.240788 0.19316,0.07938 0.423364,0.07938 0.230204,0 0.423364,-0.07938 0.19316,-0.08203 0.333399,-0.240788 0.140239,-0.161408 0.21962,-0.402196 0.07938,-0.243435 0.07938,-0.56625 z m 0.669444,0 q 0,0.404842 -0.116425,0.743534 -0.113779,0.336045 -0.336045,0.579479 -0.21962,0.243434 -0.542435,0.378382 -0.320169,0.134947 -0.730303,0.134947 -0.410134,0 -0.732949,-0.134947 -0.320169,-0.134948 -0.542436,-0.378382 -0.21962,-0.243434 -0.336045,-0.579479 -0.113779,-0.338692 -0.113779,-0.743534 0,-0.404842 0.113779,-0.740887 0.116425,-0.338691 0.336045,-0.582125 0.222267,-0.243435 0.542436,-0.378382 0.322815,-0.134947 0.732949,-0.134947 0.410134,0 0.730303,0.134947 0.322815,0.134947 0.542435,0.378382 0.222266,0.243434 0.336045,0.582125 0.116425,0.336045 0.116425,0.740887 z"
         style="font-style:normal;font-variant:normal;font-weight:bold;font-stretch:normal;font-size:5.41906px;line-height:1.25;font-family:Corbel;-inkscape-font-specification:'Corbel Bold';fill:#ffffff;fill-opacity:1;stroke:none;stroke-width:0.135476"
         id="path886" />
      <path
         d="m 71.856566,46.550533 q 0.381028,0.542435 0.61917,0.963153 h 0.01588 q -0.03175,-0.690612 -0.03175,-1.005489 v -1.603492 h 0.648276 v 3.540382 H 72.428108 L 71.274441,46.815136 Q 70.970148,46.391772 70.644687,45.83346 h -0.01588 q 0.03175,0.650923 0.03175,1.008136 v 1.603491 h -0.648276 v -3.540382 h 0.680028 z"
         style="font-style:normal;font-variant:normal;font-weight:bold;font-stretch:normal;font-size:5.41906px;line-height:1.25;font-family:Corbel;-inkscape-font-specification:'Corbel Bold';fill:#ffffff;fill-opacity:1;stroke:none;stroke-width:0.135476"
         id="path888" />
    </g>
  </g>
</svg>
